<?xml version="1.0" encoding="UTF-8"?>
<svg id="Layer_2" data-name="Layer 2" xmlns="http://www.w3.org/2000/svg" viewBox="0 0 120 120">
  <defs>
    <style>
      .cls-1 {
        fill: #fff;
      }
    </style>
  </defs>
  <g id="Layer_1-2" data-name="Layer 1">
    <g>
      <path class="cls-1" d="M118.8,1.2V118.8H1.2V1.2H118.8m1.2-1.2H0V120H120V0h0Z"/>
      <path class="cls-1" d="M95.55,99.53h-30.5v-2.15c3.08-.29,5.19-.68,6.34-1.18,1.07-.43,1.61-1.33,1.61-2.69,0-2.15-4.66-8.88-13.96-20.19l-11.17-13.64-5.8,5.8v20.84c0,4.15,.75,6.98,2.26,8.49,1.5,1.36,4.37,2.22,8.59,2.58v2.15H24.45v-2.15c4.3-.36,7.2-1.29,8.7-2.79,1.36-1.58,2.04-4.83,2.04-9.77V33.15c0-4.51-.9-7.45-2.69-8.81-1.07-.79-3.76-1.36-8.06-1.72v-2.15h28.68v2.15c-4.58,.36-7.48,1-8.7,1.93-1.58,1.36-2.36,4.23-2.36,8.59v27.93c12.31-12.74,20.3-21.37,23.95-25.89,3.44-4.22,5.16-7.41,5.16-9.56,0-1.14-.47-1.9-1.4-2.26-.93-.36-2.72-.61-5.37-.75v-2.15h26.21v2.15c-1.65,.07-3.33,.18-5.05,.32-1.58,.14-3.12,.68-4.62,1.61-1.79,1.15-3.97,3.19-6.55,6.12l-21.59,23.63,25.89,31.9c3.44,4.15,6.37,7.09,8.81,8.81,2.51,1.57,5.19,2.36,8.05,2.36v2.15Z"/>
    </g>
  </g>
</svg>