<?xml version="1.0" encoding="UTF-8"?>
<svg id="Layer_2" data-name="Layer 2" xmlns="http://www.w3.org/2000/svg" viewBox="0 0 99.14 99.14">
  <defs>
    <style>
      .cls-1 {
        fill: #fff;
      }
    </style>
  </defs>
  <g id="Layer_1-2" data-name="Layer 1">
    <g>
      <path class="cls-1" d="M49.57,0C22.24,0,0,22.24,0,49.57s22.24,49.57,49.57,49.57,49.57-22.24,49.57-49.57S76.91,0,49.57,0Zm0,95.14c-25.13,0-45.57-20.44-45.57-45.57S24.44,4,49.57,4s45.57,20.44,45.57,45.57-20.44,45.57-45.57,45.57Z"/>
      <path class="cls-1" d="M31.65,50.1c0-2.67,2.17-4.85,4.85-4.85,4.88,0,8.85-3.97,8.85-8.85,0-2.67,2.17-4.85,4.85-4.85h.17c4.88,0,8.85-3.97,8.85-8.85h-4c0,2.67-2.17,4.85-4.85,4.85h-.17c-4.88,0-8.85,3.97-8.85,8.85,0,2.67-2.17,4.85-4.85,4.85-4.88,0-8.85,3.97-8.85,8.85v.34c0,2.67-2.17,4.85-4.85,4.85v4c4.88,0,8.85-3.97,8.85-8.85v-.34Z"/>
      <path class="cls-1" d="M38.03,56.48c0-2.67,2.17-4.85,4.85-4.85,4.88,0,8.85-3.97,8.85-8.85,0-2.67,2.17-4.85,4.85-4.85h.17c4.88,0,8.85-3.97,8.85-8.85h-4c0,2.67-2.17,4.85-4.85,4.85h-.17c-4.88,0-8.85,3.97-8.85,8.85,0,2.67-2.17,4.85-4.85,4.85-4.88,0-8.85,3.97-8.85,8.85v.34c0,2.67-2.17,4.85-4.85,4.85v4c4.88,0,8.85-3.97,8.85-8.85v-.34Z"/>
      <path class="cls-1" d="M44.4,62.86c0-2.67,2.17-4.85,4.85-4.85,4.88,0,8.85-3.97,8.85-8.85,0-2.67,2.17-4.85,4.85-4.85h.17c4.88,0,8.85-3.97,8.85-8.85h-4c0,2.67-2.17,4.85-4.85,4.85h-.17c-4.88,0-8.85,3.97-8.85,8.85,0,2.67-2.17,4.85-4.85,4.85-4.88,0-8.85,3.97-8.85,8.85v.34c0,2.67-2.17,4.85-4.85,4.85v4c4.88,0,8.85-3.97,8.85-8.85v-.34Z"/>
      <path class="cls-1" d="M69.5,46.7h-.17c-4.88,0-8.85,3.97-8.85,8.85,0,2.67-2.17,4.85-4.85,4.85-4.88,0-8.85,3.97-8.85,8.85v.34c0,2.67-2.17,4.85-4.85,4.85v4c4.88,0,8.85-3.97,8.85-8.85v-.34c0-2.67,2.17-4.85,4.85-4.85,4.88,0,8.85-3.97,8.85-8.85,0-2.67,2.17-4.85,4.85-4.85h.17c4.88,0,8.85-3.97,8.85-8.85h-4c0,2.67-2.17,4.85-4.85,4.85Z"/>
    </g>
  </g>
</svg>