<?xml version="1.0" encoding="UTF-8"?>
<svg id="Layer_2" data-name="Layer 2" xmlns="http://www.w3.org/2000/svg" viewBox="0 0 99.14 99.14">
  <defs>
    <style>
      .cls-1 {
        fill: #fff;
      }
    </style>
  </defs>
  <g id="Layer_1-2" data-name="Layer 1">
    <path class="cls-1" d="M49.57,0C22.24,0,0,22.24,0,49.57c0,20.11,12.04,37.46,29.28,45.22,1.46,.66,2.97,1.25,4.5,1.77,4.96,1.67,10.27,2.58,15.79,2.58s10.83-.91,15.79-2.58c1.53-.52,3.04-1.11,4.5-1.77,17.24-7.76,29.28-25.11,29.28-45.22C99.14,22.24,76.9,0,49.57,0Zm-5.04,23.56v-4.48h10.08v4.48h-1.61v25.13c0,3.59,2.92,6.51,6.52,6.51s6.37,2.86,6.37,6.38v5.03c-5.18,2.12-10.66,3.21-16.32,3.21s-11.14-1.09-16.32-3.21v-5.03c0-3.52,2.86-6.38,6.37-6.38s6.52-2.92,6.52-6.51V23.56h-1.61Zm21.36,56.16c-5.18,2.12-10.66,3.21-16.32,3.21s-11.14-1.09-16.32-3.21v-8.82c5.21,1.93,10.69,2.91,16.32,2.91s11.11-.99,16.32-2.91v8.82Zm-16.32,15.42c-5.75,0-11.25-1.07-16.32-3.03v-8.09c5.21,1.92,10.69,2.91,16.32,2.91s11.11-.99,16.32-2.91v8.09c-5.07,1.96-10.57,3.03-16.32,3.03Zm20.32-4.79v-28.77c0-5.72-4.65-10.38-10.37-10.38-1.39,0-2.52-1.13-2.52-2.51V27.56h1.61V15.08h-18.08v12.48h1.61v21.13c0,1.38-1.13,2.51-2.52,2.51-5.72,0-10.37,4.66-10.37,10.38v28.77c-14.96-7.48-25.25-22.95-25.25-40.78C4,24.44,24.44,4,49.57,4s45.57,20.44,45.57,45.57c0,17.83-10.29,33.3-25.25,40.78Z"/>
  </g>
</svg>