<?xml version="1.0" encoding="UTF-8"?>
<svg id="Layer_2" data-name="Layer 2" xmlns="http://www.w3.org/2000/svg" viewBox="0 0 99.14 99.14">
  <defs>
    <style>
      .cls-1 {
        fill: #fff;
      }
    </style>
  </defs>
  <g id="Layer_1-2" data-name="Layer 1">
    <path class="cls-1" d="M49.57,0C22.24,0,0,22.24,0,49.57s22.24,49.57,49.57,49.57,49.57-22.24,49.57-49.57S76.91,0,49.57,0Zm0,53.05c-3.57-4.12-5.51-9.32-5.51-14.83s1.94-10.71,5.51-14.83c3.57,4.12,5.51,9.32,5.51,14.83s-1.94,10.71-5.51,14.83Zm2,42.04v-24.63c6.53-.39,12.6-3.1,17.27-7.77,5.15-5.15,7.93-12,7.82-19.3l-.03-1.94-1.94-.03c-6.33-.11-12.35,1.99-17.2,5.93,1.05-2.88,1.59-5.96,1.59-9.13,0-7.28-2.88-14.09-8.12-19.17l-1.39-1.35-1.39,1.35c-5.23,5.08-8.12,11.89-8.12,19.17,0,3.17,.55,6.24,1.59,9.13-4.85-3.94-10.87-6.02-17.2-5.93l-1.94,.03-.03,1.94c-.11,7.29,2.67,14.15,7.82,19.3,4.67,4.67,10.74,7.38,17.27,7.77v24.63c-24.2-1.05-43.57-21.06-43.57-45.52S24.44,4,49.57,4s45.57,20.44,45.57,45.57-19.37,44.47-43.57,45.52Zm.06-28.64c.39-5.44,2.69-10.48,6.59-14.38,3.9-3.9,8.94-6.2,14.38-6.59-.39,5.44-2.69,10.48-6.59,14.38-3.9,3.9-8.94,6.2-14.38,6.59Zm-4.12,0c-5.44-.39-10.48-2.69-14.38-6.59-3.9-3.9-6.2-8.94-6.59-14.38,5.44,.39,10.48,2.69,14.38,6.59,3.9,3.9,6.2,8.94,6.59,14.38Z"/>
  </g>
</svg>