<?xml version="1.0" encoding="UTF-8"?>
<svg id="Layer_2" data-name="Layer 2" xmlns="http://www.w3.org/2000/svg" viewBox="0 0 99.14 99.14">
  <defs>
    <style>
      .cls-1 {
        fill: #fff;
      }
    </style>
  </defs>
  <g id="Layer_1-2" data-name="Layer 1">
    <g>
      <path class="cls-1" d="M49.57,0C22.24,0,0,22.24,0,49.57s22.24,49.57,49.57,49.57,49.57-22.24,49.57-49.57S76.91,0,49.57,0Zm0,95.14c-25.13,0-45.57-20.44-45.57-45.57S24.44,4,49.57,4s45.57,20.44,45.57,45.57-20.44,45.57-45.57,45.57Z"/>
      <rect class="cls-1" x="74.71" y="37.64" width="4" height="24.43"/>
      <rect class="cls-1" x="63.86" y="27.79" width="4" height="44.14"/>
      <rect class="cls-1" x="53" y="22.21" width="4" height="55.29"/>
      <rect class="cls-1" x="42.14" y="22.21" width="4" height="55.29"/>
      <rect class="cls-1" x="31.29" y="27.79" width="4" height="44.14"/>
      <rect class="cls-1" x="20.43" y="37.64" width="4" height="24.43"/>
    </g>
  </g>
</svg>